<svg width="17" height="16" viewBox="0 0 17 16" fill="none" xmlns="http://www.w3.org/2000/svg">
<path fill-rule="evenodd" clip-rule="evenodd" d="M2.45006 12.6404L3.6875 13.8778L5.06082 12.5045L5.06304 12.5057L6.52358 11.0451L6.5217 11.0436L11.008 6.55738L11.0094 6.55928L12.6136 4.95513L12.6116 4.95379L14.2057 3.35963L12.9683 2.12219L10.957 4.13347C10.1872 3.86474 9.36058 3.71876 8.5 3.71876C5.31818 3.71876 2.60091 5.71434 1.5 8.53126C1.95134 9.68612 2.67436 10.7029 3.58969 11.5008L2.45006 12.6404ZM5.49695 9.59352L9.57836 5.51211C9.24157 5.38967 8.87847 5.32293 8.5 5.32293C6.74364 5.32293 5.31818 6.76026 5.31818 8.53126C5.31818 8.90351 5.38116 9.26101 5.49695 9.59352Z" fill="black"/>
<path d="M8.5 13.3438C7.59375 13.3438 6.72519 13.1819 5.92093 12.8852L7.30202 11.5041C7.67184 11.6559 8.07629 11.7396 8.5 11.7396C10.2564 11.7396 11.6818 10.3023 11.6818 8.53126C11.6818 8.11344 11.6025 7.71418 11.4582 7.348L13.321 5.48513C14.2787 6.29406 15.0341 7.3391 15.5 8.53126C14.3991 11.3482 11.6818 13.3438 8.5 13.3438Z" fill="black"/>
</svg>
