<svg width="15" height="14" viewBox="0 0 15 14" fill="none" xmlns="http://www.w3.org/2000/svg">
<path d="M13.2188 8.78613H12.2812C12.2125 8.78613 12.1562 8.84238 12.1562 8.91113V11.3174H2.84375V8.91113C2.84375 8.84238 2.7875 8.78613 2.71875 8.78613H1.78125C1.7125 8.78613 1.65625 8.84238 1.65625 8.91113V12.0049C1.65625 12.2814 1.87969 12.5049 2.15625 12.5049H12.8438C13.1203 12.5049 13.3438 12.2814 13.3438 12.0049V8.91113C13.3438 8.84238 13.2875 8.78613 13.2188 8.78613Z" fill="black" fill-opacity="0.75"/>
<path d="M8.09506 7.11078H9.24975C9.35443 7.11078 9.41225 7.23109 9.34818 7.3139L7.59818 9.52797C7.58649 9.54291 7.57155 9.55499 7.5545 9.5633C7.53744 9.57161 7.51872 9.57593 7.49975 9.57593C7.48078 9.57593 7.46205 9.57161 7.445 9.5633C7.42794 9.55499 7.413 9.54291 7.40131 9.52797L5.65131 7.31234C5.58725 7.23109 5.64506 7.11078 5.74975 7.11078L6.90756 7.11078L6.90756 1.82484C6.90756 1.75609 6.96381 1.69984 7.03256 1.69984L7.97006 1.69984C8.03881 1.69984 8.09506 1.75609 8.09506 1.82484L8.09506 7.11078Z" fill="black" fill-opacity="0.75"/>
</svg>
