<svg width="25" height="25" viewBox="0 0 25 25" fill="none" xmlns="http://www.w3.org/2000/svg">
<path fill-rule="evenodd" clip-rule="evenodd" d="M9.4251 5.42327C10.3453 5.03403 11.3342 4.83339 12.3334 4.83325C13.8167 4.83325 15.2668 5.27312 16.5001 6.09723C17.7335 6.92134 18.6948 8.09268 19.2625 9.46313C19.8301 10.8336 19.9786 12.3416 19.6893 13.7964C19.3999 15.2513 18.6856 16.5877 17.6367 17.6365C16.5878 18.6854 15.2514 19.3997 13.7965 19.6891C12.3417 19.9785 10.8337 19.83 9.46325 19.2623C8.0928 18.6947 6.92146 17.7334 6.09735 16.5C5.27324 15.2667 4.83337 13.8166 4.83337 12.3333H5.9048C5.90141 13.8357 6.42436 15.2918 7.38284 16.4488C8.34131 17.6058 9.67475 18.3906 11.1516 18.6668C12.6284 18.943 14.1553 18.6932 15.4672 17.9608C16.779 17.2284 17.7928 16.0596 18.3327 14.6575C18.8725 13.2554 18.9041 11.7085 18.4222 10.2855C17.9402 8.86244 16.975 7.65318 15.6942 6.8677C14.4135 6.08222 12.898 5.77015 11.4112 5.98568C9.92426 6.20121 8.55982 6.93073 7.5548 8.04754H10.1905V9.11897H5.9048V4.83325H6.97623V7.09932C7.67218 6.38244 8.50491 5.81251 9.4251 5.42327ZM11.7977 12.5529L14.7923 15.5475L15.5477 14.7922L12.8691 12.1083V7.51182H11.7977V12.5529Z" fill="#4B5563"/>
</svg>
