<svg width="25" height="25" viewBox="0 0 25 25" fill="none" xmlns="http://www.w3.org/2000/svg">
<path d="M7.83412 8.29708H12.1112M7.83412 11.7352H16.9586M7.83412 15.1733H16.9586M17.5995 4.32891C14.9797 4.10585 10.7245 3.92195 7.08423 4.30483C6.34063 4.38304 5.75793 4.96548 5.66807 5.71128C5.2447 9.22532 4.85207 15.027 5.75842 20.9753C5.79202 21.1958 6.0533 21.2912 6.22187 21.146L7.48679 20.0566C7.68973 19.8818 7.98626 19.8721 8.20009 20.0332L9.77307 21.2186C9.97583 21.3715 10.2546 21.3715 10.4574 21.2186L12.0542 20.0153C12.257 19.8625 12.5358 19.8625 12.7385 20.0153L14.3353 21.2186C14.5381 21.3715 14.8169 21.3715 15.0196 21.2186L16.5926 20.0332C16.8065 19.8721 17.103 19.8818 17.3059 20.0566L18.5652 21.1411C18.7349 21.2874 18.9979 21.1897 19.0283 20.9671C19.7421 15.7449 19.4264 9.65472 19.0884 5.82286C19.018 5.02469 18.3941 4.39656 17.5995 4.32891Z" stroke="#4B5563" stroke-linecap="round"/>
</svg>
