<svg width="125" height="70" viewBox="0 0 125 70" fill="none" xmlns="http://www.w3.org/2000/svg">
<path d="M29.1166 64.7658L26.5458 68.3473L28.5281 68.077C30.8711 67.7575 33.182 67.2355 35.4348 66.5167C37.9341 65.7192 40.3509 64.6832 42.6518 63.4228L43.5563 62.9274L46.0599 61.1878C47.2429 60.3659 48.3651 59.4598 49.4179 58.4767C50.8801 57.1113 52.2021 55.603 53.3642 53.9744L53.9579 53.1422C54.841 51.9045 55.6025 50.5844 56.2316 49.2002C56.7121 48.1431 57.114 47.052 57.4339 45.9358L58.2597 43.0541L58.4012 42.2447C58.64 40.8783 58.76 39.4937 58.76 38.1066C58.76 36.7195 58.64 35.3349 58.4012 33.9685L58.2597 33.1591L58.2041 32.973C57.6489 31.1168 56.9616 29.3026 56.1473 27.5446L54.7854 25.0986L52.7564 22.1802L50.5969 19.7043C49.1325 18.0255 47.4737 16.5267 45.6554 15.2396C44.1853 14.1989 42.6185 13.302 40.9766 12.5612L35.19 9.95044L40.1653 17.0103C41.2158 18.5584 42.4885 19.9433 43.9426 21.1204L44.2377 21.3593C45.3005 22.2196 46.2792 23.1788 47.1607 24.224L47.7662 24.942C49.064 26.4808 50.0936 28.2269 50.8119 30.1073C51.3464 31.5063 51.7036 32.9667 51.8753 34.4545L52.2838 37.9954V40.3915C52.2838 41.3487 52.1861 42.3035 51.9922 43.2408C51.743 44.4453 51.3369 45.6118 50.7842 46.7106L50.1403 47.9909C49.5505 49.1635 48.8678 50.287 48.0987 51.3506C47.1297 52.6907 46.028 53.9297 44.8102 55.0487L43.5563 56.201L40.9158 58.1466L36.5439 60.5873C35.6428 61.0903 34.7018 61.5179 33.7303 61.8659L32.2673 62.39C31.735 62.5807 31.2292 62.8387 30.7623 63.1577C30.1242 63.5937 29.5673 64.138 29.1166 64.7658Z" fill="#3174BA"/>
<path d="M22.3722 1.2668L22.4817 0.244629L25.1827 2.7073L30.7436 8.9434L35.1525 14.4248L39.482 21.4553L41.6667 25.9437L43.6924 31.306L44.058 32.8049C44.3435 33.9753 44.5401 35.1656 44.6463 36.3657C44.8043 38.1505 44.7613 39.9475 44.5181 41.7227L44.4868 41.951L43.9402 44.3834C43.7752 45.1175 43.5545 45.8379 43.28 46.5385L43.2458 46.6258C42.7778 47.82 42.1492 48.9448 41.3774 49.9693C40.6988 50.8699 39.9148 51.6859 39.0421 52.4L38.1713 53.1125L34.8348 55.734L30.7038 58.2364L29.402 59.0893C28.7351 59.5263 28.1035 60.0149 27.513 60.5507L27.2153 60.8209C26.5772 61.3999 26.0054 62.048 25.5104 62.7533C24.9499 63.552 24.4922 64.4181 24.1479 65.3311L24.0962 65.4683C23.8676 66.0746 23.6854 66.6974 23.5511 67.3313L23.0378 69.7553L21.7668 67.3721L20.6561 64.8598C20.2852 64.0209 19.9951 63.1486 19.7898 62.2547C19.5462 61.1945 19.4233 60.1102 19.4233 59.0224V57.6186C19.4233 56.9749 19.5199 56.3348 19.71 55.7198C19.9664 54.8905 20.388 54.1217 20.9494 53.4597L21.9614 52.2664C22.4926 51.64 23.0776 51.0613 23.7097 50.537L26.2552 48.4254L29.1148 45.3664C29.4848 44.9704 29.8171 44.5408 30.1073 44.083C30.9899 42.6904 31.4585 41.0756 31.4585 39.4269V38.2514C31.4585 37.5941 31.4077 36.9379 31.3065 36.2884L31.2753 36.0885C31.0804 34.838 30.7318 33.6164 30.2372 32.4514L30.0487 32.0073C29.481 30.6702 28.7638 29.4016 27.9108 28.2258L26.2552 25.9437L24.6266 23.8783L23.8322 27.175L22.6803 31.5443L21.5682 34.2056L20.8351 35.4409C19.8969 37.022 18.7834 38.4923 17.5159 39.824L17.2729 40.0793C16.6154 40.7701 16.0091 41.5079 15.4588 42.2868L15.1412 42.7363C14.1884 44.0848 13.4489 45.5723 12.9488 47.1459C12.3709 48.964 12.1211 50.8707 12.2111 52.7764C12.2789 54.212 12.5389 55.6321 12.9841 56.9987L14.0213 60.1827L10.089 57.0051L6.8319 53.8671L5.27614 52.0591C4.35555 50.9892 3.53059 49.8406 2.81075 48.6266L2.18257 47.5671C1.551 46.5019 1.05814 45.3604 0.715975 44.1702C0.45115 43.2491 0.278083 42.304 0.199304 41.3488L0.0712884 39.7967C0.0238923 39.222 0.0366174 38.6439 0.109257 38.0719C0.246901 36.9879 0.597584 35.9419 1.14112 34.994L2.48471 32.651C3.20964 31.3868 4.05946 30.1984 5.02144 29.1038L9.33429 24.196L13.9021 19.0721L17.9536 13.4715L19.3935 10.8213C20.2583 9.22958 20.9528 7.55103 21.4655 5.81357C21.9038 4.32831 22.2072 2.80656 22.3722 1.2668Z" fill="#FF6E2E"/>
<path d="M84.9812 17.423C84.8997 17.1394 84.785 16.8888 84.6374 16.6713C84.4898 16.4498 84.3091 16.2634 84.0955 16.1118C83.8857 15.9564 83.6448 15.8379 83.3728 15.7564C83.1048 15.6748 82.8076 15.634 82.4812 15.634C81.8713 15.634 81.3351 15.7855 80.8728 16.0885C80.4144 16.3916 80.057 16.8325 79.8006 17.4114C79.5441 17.9864 79.4159 18.6895 79.4159 19.5209C79.4159 20.3523 79.5422 21.0594 79.7947 21.6422C80.0473 22.2249 80.4047 22.6698 80.867 22.9767C81.3293 23.2797 81.8752 23.4312 82.5045 23.4312C83.0756 23.4312 83.5632 23.3302 83.9672 23.1282C84.3752 22.9223 84.686 22.6329 84.8997 22.2599C85.1172 21.8869 85.226 21.446 85.226 20.937L85.7388 21.0128H82.6619V19.113H87.6561V20.6165C87.6561 21.6655 87.4346 22.5668 86.9917 23.3205C86.5488 24.0703 85.9389 24.6492 85.1619 25.0571C84.3849 25.4611 83.4952 25.6632 82.4929 25.6632C81.374 25.6632 80.3911 25.4165 79.5441 24.9231C78.6972 24.4258 78.0368 23.7207 77.5628 22.8077C77.0927 21.8908 76.8576 20.803 76.8576 19.5443C76.8576 18.5769 76.9975 17.7144 77.2772 16.9568C77.5608 16.1954 77.9571 15.5504 78.466 15.0221C78.975 14.4937 79.5675 14.0916 80.2434 13.8158C80.9194 13.5399 81.6518 13.402 82.4404 13.402C83.1164 13.402 83.7458 13.5011 84.3286 13.6992C84.9113 13.8935 85.428 14.1693 85.8787 14.5267C86.3332 14.8842 86.7042 15.3096 86.9917 15.803C87.2792 16.2925 87.4638 16.8325 87.5454 17.423H84.9812ZM91.4041 25.5H88.7001L92.8202 13.5652H96.072L100.186 25.5H97.4822L94.4927 16.2925H94.3995L91.4041 25.5ZM91.2351 20.8088H97.6221V22.7785H91.2351V20.8088ZM101.659 25.5V24.0023L107.614 15.6456H101.647V13.5652H110.785V15.0629L104.823 23.4196H110.796V25.5H101.659Z" fill="#FF6E2E"/>
<path d="M65.2949 30.6456V28.5652H75.0968V30.6456H71.4429V40.5H68.9487V30.6456H65.2949ZM76.8751 40.5V28.5652H84.9171V30.6456H79.3985V33.4895H84.5034V35.5699H79.3985V38.4196H84.9404V40.5H76.8751ZM89.4533 28.5652L91.8601 32.6328H91.9534L94.3718 28.5652H97.2215L93.5792 34.5326L97.303 40.5H94.4009L91.9534 36.4265H91.8601L89.4126 40.5H86.5221L90.2575 34.5326L86.592 28.5652H89.4533ZM108.965 28.5652V40.5H106.785L101.593 32.9883H101.506V40.5H98.9823V28.5652H101.197L106.348 36.0711H106.453V28.5652H108.965ZM122.181 34.5326C122.181 35.8341 121.935 36.9413 121.441 37.8543C120.952 38.7673 120.283 39.4646 119.436 39.9464C118.593 40.4242 117.645 40.6632 116.593 40.6632C115.532 40.6632 114.58 40.4223 113.737 39.9406C112.894 39.4588 112.228 38.7615 111.738 37.8485C111.249 36.9355 111.004 35.8302 111.004 34.5326C111.004 33.2311 111.249 32.1239 111.738 31.2109C112.228 30.2979 112.894 29.6025 113.737 29.1246C114.58 28.6429 115.532 28.402 116.593 28.402C117.645 28.402 118.593 28.6429 119.436 29.1246C120.283 29.6025 120.952 30.2979 121.441 31.2109C121.935 32.1239 122.181 33.2311 122.181 34.5326ZM119.623 34.5326C119.623 33.6895 119.497 32.9786 119.244 32.3997C118.995 31.8209 118.644 31.3818 118.189 31.0827C117.735 30.7835 117.203 30.634 116.593 30.634C115.983 30.634 115.45 30.7835 114.996 31.0827C114.541 31.3818 114.188 31.8209 113.935 32.3997C113.687 32.9786 113.562 33.6895 113.562 34.5326C113.562 35.3757 113.687 36.0866 113.935 36.6655C114.188 37.2443 114.541 37.6834 114.996 37.9825C115.45 38.2816 115.983 38.4312 116.593 38.4312C117.203 38.4312 117.735 38.2816 118.189 37.9825C118.644 37.6834 118.995 37.2443 119.244 36.6655C119.497 36.0866 119.623 35.3757 119.623 34.5326ZM64.2651 55.5V43.5652H68.9738C69.879 43.5652 70.6502 43.7381 71.2873 44.0839C71.9244 44.4257 72.4101 44.9016 72.7442 45.5116C73.0822 46.1177 73.2512 46.817 73.2512 47.6095C73.2512 48.4021 73.0802 49.1014 72.7384 49.7074C72.3965 50.3135 71.9011 50.7855 71.2523 51.1235C70.6074 51.4615 69.8265 51.6305 68.9097 51.6305H65.9085V49.6084H68.5017C68.9874 49.6084 69.3875 49.5248 69.7022 49.3578C70.0208 49.1868 70.2578 48.9518 70.4132 48.6526C70.5725 48.3496 70.6521 48.0019 70.6521 47.6095C70.6521 47.2132 70.5725 46.8675 70.4132 46.5722C70.2578 46.2731 70.0208 46.0419 69.7022 45.8787C69.3836 45.7117 68.9796 45.6281 68.4901 45.6281H66.7884V55.5H64.2651ZM75.0543 55.5V43.5652H79.7629C80.6643 43.5652 81.4335 43.7264 82.0706 44.0489C82.7117 44.3675 83.1992 44.8201 83.5334 45.4067C83.8714 45.9895 84.0404 46.6752 84.0404 47.4638C84.0404 48.2564 83.8694 48.9382 83.5275 49.5093C83.1856 50.0765 82.6903 50.5116 82.0415 50.8147C81.3966 51.1177 80.6157 51.2692 79.6988 51.2692H76.5461V49.2412H79.2909C79.7726 49.2412 80.1728 49.1752 80.4914 49.0431C80.81 48.911 81.0469 48.7129 81.2023 48.4487C81.3616 48.1845 81.4413 47.8562 81.4413 47.4638C81.4413 47.0676 81.3616 46.7334 81.2023 46.4615C81.0469 46.1895 80.808 45.9836 80.4856 45.8438C80.167 45.7 79.7649 45.6281 79.2793 45.6281H77.5776V55.5H75.0543ZM81.4995 50.0687L84.4658 55.5H81.6802L78.7781 50.0687H81.4995ZM88.511 43.5652V55.5H85.9877V43.5652H88.511ZM90.7512 55.5V43.5652H95.5298C96.4078 43.5652 97.1401 43.6953 97.7267 43.9556C98.3134 44.2159 98.7543 44.5772 99.0496 45.0396C99.3448 45.498 99.4925 46.0264 99.4925 46.6247C99.4925 47.0909 99.3992 47.5007 99.2128 47.8543C99.0263 48.2039 98.7699 48.4914 98.4435 48.7167C98.1211 48.9382 97.752 49.0955 97.3363 49.1888V49.3053C97.7908 49.3248 98.2162 49.453 98.6125 49.6899C99.0127 49.9269 99.3371 50.2591 99.5857 50.6865C99.8344 51.1099 99.9587 51.615 99.9587 52.2016C99.9587 52.8349 99.8013 53.4001 99.4867 53.8974C99.1758 54.3908 98.7155 54.7813 98.1055 55.0688C97.4956 55.3563 96.7438 55.5 95.8503 55.5H90.7512ZM93.2745 53.4371H95.3316C96.0348 53.4371 96.5476 53.303 96.8701 53.035C97.1925 52.763 97.3538 52.4017 97.3538 51.951C97.3538 51.6208 97.2741 51.3294 97.1148 51.0769C96.9556 50.8244 96.7283 50.6262 96.433 50.4825C96.1416 50.3387 95.7939 50.2669 95.3899 50.2669H93.2745V53.4371ZM93.2745 48.5594H95.1451C95.4909 48.5594 95.7978 48.4992 96.0659 48.3787C96.3378 48.2544 96.5515 48.0796 96.7069 47.8543C96.8662 47.6289 96.9458 47.3589 96.9458 47.0442C96.9458 46.613 96.7924 46.2653 96.4855 46.0011C96.1824 45.7369 95.7512 45.6048 95.1918 45.6048H93.2745V48.5594ZM112.732 49.5326C112.732 50.8341 112.485 51.9413 111.992 52.8543C111.503 53.7673 110.834 54.4646 109.987 54.9464C109.144 55.4242 108.196 55.6632 107.144 55.6632C106.083 55.6632 105.131 55.4223 104.288 54.9406C103.445 54.4588 102.779 53.7615 102.289 52.8485C101.8 51.9355 101.555 50.8302 101.555 49.5326C101.555 48.2311 101.8 47.1239 102.289 46.2109C102.779 45.2979 103.445 44.6025 104.288 44.1246C105.131 43.6429 106.083 43.402 107.144 43.402C108.196 43.402 109.144 43.6429 109.987 44.1246C110.834 44.6025 111.503 45.2979 111.992 46.2109C112.485 47.1239 112.732 48.2311 112.732 49.5326ZM110.174 49.5326C110.174 48.6895 110.048 47.9786 109.795 47.3997C109.546 46.8209 109.195 46.3818 108.74 46.0827C108.286 45.7835 107.753 45.634 107.144 45.634C106.534 45.634 106.001 45.7835 105.547 46.0827C105.092 46.3818 104.739 46.8209 104.486 47.3997C104.238 47.9786 104.113 48.6895 104.113 49.5326C104.113 50.3757 104.238 51.0866 104.486 51.6655C104.739 52.2443 105.092 52.6834 105.547 52.9825C106.001 53.2816 106.534 53.4312 107.144 53.4312C107.753 53.4312 108.286 53.2816 108.74 52.9825C109.195 52.6834 109.546 52.2443 109.795 51.6655C110.048 51.0866 110.174 50.3757 110.174 49.5326ZM114.765 55.5V43.5652H119.474C120.375 43.5652 121.145 43.7264 121.782 44.0489C122.423 44.3675 122.91 44.8201 123.244 45.4067C123.582 45.9895 123.751 46.6752 123.751 47.4638C123.751 48.2564 123.581 48.9382 123.239 49.5093C122.897 50.0765 122.401 50.5116 121.753 50.8147C121.108 51.1177 120.327 51.2692 119.41 51.2692H116.257V49.2412H119.002C119.484 49.2412 119.884 49.1752 120.203 49.0431C120.521 48.911 120.758 48.7129 120.913 48.4487C121.073 48.1845 121.152 47.8562 121.152 47.4638C121.152 47.0676 121.073 46.7334 120.913 46.4615C120.758 46.1895 120.519 45.9836 120.197 45.8438C119.878 45.7 119.476 45.6281 118.99 45.6281H117.289V55.5H114.765ZM121.211 50.0687L124.177 55.5H121.391L118.489 50.0687H121.211Z" fill="#3174BA"/>
</svg>
