<svg width="25" height="25" viewBox="0 0 25 25" fill="none" xmlns="http://www.w3.org/2000/svg">
<path d="M13.8334 8.51625V5.15025C13.8334 4.91225 13.9114 4.71659 14.0674 4.56325C14.2234 4.40992 14.4167 4.33325 14.6474 4.33325H19.5274C19.758 4.33325 19.95 4.40992 20.1034 4.56325C20.2567 4.71659 20.3334 4.91225 20.3334 5.15025V8.51625C20.3334 8.75425 20.2554 8.94992 20.0994 9.10325C19.9434 9.25659 19.75 9.33325 19.5194 9.33325H14.6394C14.4087 9.33325 14.2167 9.25659 14.0634 9.10325C13.91 8.94992 13.8334 8.75425 13.8334 8.51625ZM4.33337 11.5333V5.13325C4.33337 4.90659 4.41137 4.71659 4.56737 4.56325C4.72337 4.40992 4.91671 4.33325 5.14737 4.33325H10.0274C10.258 4.33325 10.45 4.40992 10.6034 4.56325C10.7567 4.71659 10.8334 4.90659 10.8334 5.13325V11.5333C10.8334 11.7599 10.7554 11.9499 10.5994 12.1033C10.4434 12.2566 10.25 12.3333 10.0194 12.3333H5.13937C4.90871 12.3333 4.71671 12.2566 4.56337 12.1033C4.41004 11.9499 4.33337 11.7599 4.33337 11.5333ZM13.8334 19.5333V13.1333C13.8334 12.9066 13.9114 12.7166 14.0674 12.5633C14.2234 12.4099 14.4167 12.3333 14.6474 12.3333H19.5274C19.758 12.3333 19.95 12.4099 20.1034 12.5633C20.2567 12.7166 20.3334 12.9066 20.3334 13.1333V19.5333C20.3334 19.7599 20.2554 19.9499 20.0994 20.1033C19.9434 20.2566 19.75 20.3333 19.5194 20.3333H14.6394C14.4087 20.3333 14.2167 20.2566 14.0634 20.1033C13.91 19.9499 13.8334 19.7599 13.8334 19.5333ZM4.33337 19.5163V16.1503C4.33337 15.9123 4.41137 15.7166 4.56737 15.5633C4.72337 15.4099 4.91671 15.3333 5.14737 15.3333H10.0274C10.258 15.3333 10.45 15.4099 10.6034 15.5633C10.7567 15.7166 10.8334 15.9123 10.8334 16.1503V19.5163C10.8334 19.7543 10.7554 19.9499 10.5994 20.1033C10.4434 20.2566 10.25 20.3333 10.0194 20.3333H5.13937C4.90871 20.3333 4.71671 20.2566 4.56337 20.1033C4.41004 19.9499 4.33337 19.7543 4.33337 19.5163ZM5.33337 11.3333H9.83337V5.33325H5.33337V11.3333ZM14.8334 19.3333H19.3334V13.3333H14.8334V19.3333ZM14.8334 8.33325H19.3334V5.33325H14.8334V8.33325ZM5.33337 19.3333H9.83337V16.3333H5.33337V19.3333Z" fill="#FF6E2E"/>
</svg>
