<svg width="16" height="16" viewBox="0 0 16 16" fill="none" xmlns="http://www.w3.org/2000/svg">
<path d="M8.00002 6C7.46959 6 6.96088 6.21071 6.58581 6.58579C6.21073 6.96086 6.00002 7.46957 6.00002 8C6.00002 8.53043 6.21073 9.03914 6.58581 9.41421C6.96088 9.78929 7.46959 10 8.00002 10C8.53045 10 9.03916 9.78929 9.41423 9.41421C9.78931 9.03914 10 8.53043 10 8C10 7.46957 9.78931 6.96086 9.41423 6.58579C9.03916 6.21071 8.53045 6 8.00002 6ZM8.00002 11.3333C7.11597 11.3333 6.26812 10.9821 5.643 10.357C5.01788 9.7319 4.66669 8.88406 4.66669 8C4.66669 7.11595 5.01788 6.2681 5.643 5.64298C6.26812 5.01786 7.11597 4.66667 8.00002 4.66667C8.88408 4.66667 9.73192 5.01786 10.357 5.64298C10.9822 6.2681 11.3334 7.11595 11.3334 8C11.3334 8.88406 10.9822 9.7319 10.357 10.357C9.73192 10.9821 8.88408 11.3333 8.00002 11.3333ZM8.00002 3C4.66669 3 1.82002 5.07333 0.666687 8C1.82002 10.9267 4.66669 13 8.00002 13C11.3334 13 14.18 10.9267 15.3334 8C14.18 5.07333 11.3334 3 8.00002 3Z" fill="black"/>
</svg>
