<svg width="25" height="24" viewBox="0 0 25 24" fill="none" xmlns="http://www.w3.org/2000/svg">
<g id="ci:file-pdf">
<path id="Vector" d="M18.5 22H6.5C5.96957 22 5.46086 21.7893 5.08579 21.4142C4.71071 21.0392 4.5 20.5305 4.5 20V4.00003C4.5 3.46959 4.71071 2.96088 5.08579 2.58581C5.46086 2.21074 5.96957 2.00003 6.5 2.00003H13.5C13.509 1.99885 13.518 1.99885 13.527 2.00003H13.533C13.5424 2.00298 13.5522 2.00499 13.562 2.00603C13.65 2.01203 13.737 2.02903 13.821 2.05703H13.863C13.8815 2.06994 13.8988 2.08432 13.915 2.10003C14.0239 2.14847 14.1232 2.21623 14.208 2.30003L20.208 8.30003C20.2918 8.38481 20.3596 8.48408 20.408 8.59303C20.4167 8.61465 20.4244 8.63667 20.431 8.65903L20.441 8.68703C20.469 8.77003 20.485 8.85703 20.49 8.94502C20.4909 8.95499 20.4932 8.96476 20.497 8.97403V8.98002C20.4986 8.98659 20.4996 8.99328 20.5 9.00003V20C20.5 20.5305 20.2893 21.0392 19.9142 21.4142C19.5391 21.7893 19.0304 22 18.5 22ZM14.924 14V19H15.864V16.96H17.324V16.122H15.864V14.841H17.5V14H14.924ZM11.224 14V19H12.43C12.6798 19.0124 12.9292 18.9685 13.1597 18.8715C13.3902 18.7746 13.5961 18.6271 13.762 18.44C14.1069 17.9999 14.2797 17.4493 14.248 16.891V16.081C14.2713 15.5286 14.0936 14.9865 13.748 14.555C13.423 14.185 12.948 13.981 12.455 14H11.224ZM7.5 14V19H8.44V17.241H9.066C9.484 17.264 9.892 17.109 10.19 16.815C10.4739 16.4973 10.6212 16.0806 10.6 15.655C10.6186 15.2193 10.4713 14.7926 10.188 14.461C10.0496 14.3075 9.87889 14.1866 9.68818 14.1069C9.49747 14.0272 9.29148 13.9907 9.085 14H7.5ZM13.5 4.00003V9.00003H18.5L13.5 4.00003ZM12.446 18.162H12.164V14.841H12.506C12.6255 14.834 12.7449 14.857 12.8532 14.908C12.9615 14.959 13.0553 15.0364 13.126 15.133C13.273 15.436 13.336 15.773 13.308 16.109V16.978C13.33 17.298 13.261 17.618 13.108 17.899C13.0273 17.9933 12.9248 18.0665 12.8095 18.1123C12.6941 18.1581 12.5694 18.1752 12.446 18.162ZM9.085 16.4H8.439V14.841H9.094C9.17444 14.8419 9.25334 14.8632 9.32331 14.9029C9.39327 14.9426 9.452 14.9994 9.494 15.068C9.602 15.247 9.654 15.453 9.644 15.662C9.65654 15.8565 9.6049 16.0497 9.497 16.212C9.44797 16.2736 9.3851 16.3227 9.31351 16.3553C9.24191 16.388 9.16362 16.4033 9.085 16.4Z" fill="black" fill-opacity="0.45"/>
</g>
</svg>
