<svg width="25" height="25" viewBox="0 0 25 25" fill="none" xmlns="http://www.w3.org/2000/svg">
<path fill-rule="evenodd" clip-rule="evenodd" d="M20.5958 6.84905L19.6478 6.62542L17.0859 9.17279L15.6347 7.69493L18.1335 5.07343L17.9147 4.11087C17.3867 3.93422 16.8344 3.84074 16.2776 3.83377C15.6703 3.82444 15.0675 3.94027 14.5069 4.17407C13.9656 4.4191 13.4763 4.76565 13.0655 5.19496C12.6082 5.62813 12.2461 6.15169 12.0021 6.73237C11.5323 7.88803 11.5323 9.18144 12.0021 10.3371C9.46836 12.8298 6.96737 15.3555 4.49973 17.9136C4.24451 18.2478 4.12298 18.6646 4.15458 19.0839C4.17948 19.5349 4.38229 19.9576 4.7185 20.2592C4.8692 20.4232 5.04907 20.5594 5.2496 20.6578C5.45621 20.749 5.67862 20.8012 5.90346 20.8122C6.28751 20.8049 6.65576 20.659 6.94136 20.4026C8.82272 18.6318 12.4274 14.9943 14.4753 12.8626C15.0307 13.0984 15.6274 13.2199 16.2302 13.2187C16.837 13.2182 17.4376 13.0961 17.9964 12.8596C18.5552 12.6231 19.061 12.277 19.4837 11.8417C20.3522 10.956 20.8372 9.76418 20.834 8.52379C20.848 7.9562 20.7675 7.39022 20.5958 6.84905ZM6.20608 19.5409C6.1593 19.5824 6.10291 19.6117 6.04201 19.626C5.98209 19.6363 5.92084 19.6363 5.86092 19.626C5.7981 19.6164 5.73826 19.5927 5.68591 19.5567C5.62973 19.5238 5.58223 19.478 5.54736 19.423C5.37721 19.2492 5.218 18.9186 5.37721 18.7327C7.04224 16.9619 10.4707 13.5006 12.6146 11.3847C12.7361 11.5451 12.8698 11.6983 13.0132 11.8417C13.1566 11.9912 13.311 12.1297 13.4751 12.2561C11.4017 14.383 8.01937 17.803 6.20608 19.5409ZM19.7183 8.52379C19.7207 9.45353 19.3585 10.3468 18.7071 11.0128C18.0571 11.6505 17.1828 12.0077 16.2722 12.0077C15.3616 12.0077 14.4873 11.6505 13.8372 11.0128C13.3608 10.5156 13.0353 9.89335 12.8987 9.21842C12.7621 8.54349 12.8199 7.84363 13.0655 7.20028C13.2289 6.76243 13.4825 6.36377 13.8097 6.03006C14.1369 5.69636 14.5305 5.43504 14.9651 5.26302C15.3777 5.09033 15.8206 5.0019 16.2679 5.00294H16.5766L14.3683 7.27928V8.12516L16.6714 10.4173H17.4735L19.7183 8.21023V8.52379ZM6.57919 10.7418H8.43988L9.2967 11.6132L10.1207 10.7941L9.3125 9.97005V9.91779L9.38178 7.91369L9.1144 7.38258L5.63851 5.0953L4.92024 5.17552L3.91029 6.20734L3.83008 6.93534L6.06388 10.4817L6.57919 10.7418ZM5.43069 6.32766L8.243 8.17985L8.1956 9.54468H6.88789L5.07459 6.67404L5.43069 6.32766ZM14.0657 14.7865L14.8849 13.9685L18.6597 17.8394C18.9777 18.1736 19.155 18.6172 19.155 19.0785C19.155 19.5397 18.9777 19.9833 18.6597 20.3175C18.4206 20.563 18.1132 20.7307 17.7774 20.799C17.4417 20.8673 17.0931 20.8329 16.7772 20.7003C16.5755 20.6109 16.3947 20.4805 16.246 20.3175L12.4274 16.4248L13.2527 15.6007L17.0591 19.4826C17.1103 19.539 17.174 19.5827 17.2451 19.6102C17.385 19.667 17.5415 19.667 17.6814 19.6102C17.7524 19.5827 17.8161 19.539 17.8673 19.4826C17.9205 19.4299 17.9619 19.3665 17.9889 19.2966C18.0167 19.2253 18.0316 19.1496 18.0326 19.073C18.0314 18.9966 18.017 18.9209 17.9901 18.8494C17.9632 18.7795 17.9217 18.7161 17.8685 18.6634L14.0657 14.7865Z" fill="black" fill-opacity="0.45"/>
</svg>
