<svg width="14" height="14" viewBox="0 0 14 14" fill="none" xmlns="http://www.w3.org/2000/svg">
<g id="Upload">
<path id="Vector" d="M5.25 3.96893H6.40469V9.25487C6.40469 9.32362 6.46094 9.37987 6.52969 9.37987H7.46719C7.53594 9.37987 7.59219 9.32362 7.59219 9.25487V3.96893H8.75C8.85469 3.96893 8.9125 3.84862 8.84844 3.76737L7.09844 1.55174C7.08674 1.5368 7.0718 1.52472 7.05475 1.51641C7.03769 1.5081 7.01897 1.50378 7 1.50378C6.98103 1.50378 6.96231 1.5081 6.94525 1.51641C6.92819 1.52472 6.91326 1.5368 6.90156 1.55174L5.15156 3.76581C5.0875 3.84862 5.14531 3.96893 5.25 3.96893ZM12.7188 8.78612H11.7812C11.7125 8.78612 11.6562 8.84237 11.6562 8.91112V11.3174H2.34375V8.91112C2.34375 8.84237 2.2875 8.78612 2.21875 8.78612H1.28125C1.2125 8.78612 1.15625 8.84237 1.15625 8.91112V12.0049C1.15625 12.2814 1.37969 12.5049 1.65625 12.5049H12.3438C12.6203 12.5049 12.8438 12.2814 12.8438 12.0049V8.91112C12.8438 8.84237 12.7875 8.78612 12.7188 8.78612Z" fill="black" fill-opacity="0.75"/>
</g>
</svg>
